<svg width="32" height="32" viewBox="0 0 32 32" fill="none" xmlns="http://www.w3.org/2000/svg">
  <defs>
    <linearGradient id="vaporGrad" x1="0%" y1="0%" x2="100%" y2="100%">
      <stop offset="0%" stop-color="#6366f1"/>
      <stop offset="100%" stop-color="#8b5cf6"/>
    </linearGradient>
  </defs>
  <circle cx="16" cy="16" r="14" fill="url(#vaporGrad)" opacity="0.2"/>
  <circle cx="16" cy="16" r="10" fill="url(#vaporGrad)" opacity="0.4"/>
  <path d="M16 6C11 6 8 11 8 16C8 21 11 24 16 24C16 24 14 20 14 16C14 12 16 6 16 6Z" fill="url(#vaporGrad)" opacity="0.7"/>
  <path d="M16 6C21 6 24 11 24 16C24 21 21 24 16 24C16 24 18 20 18 16C18 12 16 6 16 6Z" fill="url(#vaporGrad)" opacity="0.9"/>
  <circle cx="16" cy="16" r="3" fill="url(#vaporGrad)"/>
</svg>
